<svg width="48" height="48" viewBox="0 0 48 48" fill="none" xmlns="http://www.w3.org/2000/svg">
<path d="M44 42.5C44 43.32 43.32 44 42.5 44H5.5C4.68 44 4 43.32 4 42.5C4 41.68 4.68 41 5.5 41H42.5C43.32 41 44 41.68 44 42.5Z" fill="#8B5CF6"/>
<path d="M30.78 9.04002L9.3 30.52C8.48 31.34 7.16 31.34 6.36 30.52H6.34C3.56 27.72 3.56 23.2 6.34 20.42L20.64 6.12002C23.44 3.32002 27.96 3.32002 30.76 6.12002C31.58 6.90002 31.58 8.24002 30.78 9.04002Z" fill="#8B5CF6"/>
<path d="M41.64 16.98L35.54 10.88C34.72 10.06 33.4 10.06 32.6 10.88L11.12 32.36C10.3 33.16 10.3 34.48 11.12 35.3L17.22 41.42C20.02 44.2 24.54 44.2 27.34 41.42L41.62 27.12C44.46 24.32 44.46 19.78 41.64 16.98ZM25.52 35.04L23.1 37.48C22.6 37.98 21.78 37.98 21.26 37.48C20.76 36.98 20.76 36.16 21.26 35.64L23.7 33.2C24.18 32.72 25.02 32.72 25.52 33.2C26.02 33.7 26.02 34.56 25.52 35.04ZM33.46 27.1L28.58 32C28.08 32.48 27.26 32.48 26.74 32C26.24 31.5 26.24 30.68 26.74 30.16L31.64 25.26C32.12 24.78 32.96 24.78 33.46 25.26C33.96 25.78 33.96 26.6 33.46 27.1Z" fill="#8B5CF6"/>
</svg>
