<svg width="20" height="20" viewBox="0 0 20 20" fill="none" xmlns="http://www.w3.org/2000/svg">
<path d="M18.2667 13.9584C17.9917 16.175 16.175 17.9917 13.9583 18.2667C12.6167 18.4334 11.3667 18.0667 10.3917 17.35C9.83334 16.9417 9.96667 16.075 10.6333 15.875C13.1417 15.1167 15.1167 13.1334 15.8833 10.625C16.0833 9.96668 16.95 9.83335 17.3583 10.3834C18.0667 11.3667 18.4333 12.6167 18.2667 13.9584Z" fill="#A4A7AE"/>
<path d="M8.325 1.66669C4.65 1.66669 1.66666 4.65002 1.66666 8.32502C1.66666 12 4.65 14.9834 8.325 14.9834C12 14.9834 14.9833 12 14.9833 8.32502C14.975 4.65002 12 1.66669 8.325 1.66669ZM7.54166 7.39169L9.55 8.09169C10.275 8.35002 10.625 8.85835 10.625 9.64169C10.625 10.5417 9.90833 11.2834 9.03333 11.2834H8.95833V11.325C8.95833 11.6667 8.675 11.95 8.33333 11.95C7.99166 11.95 7.70833 11.6667 7.70833 11.325V11.275C6.78333 11.2334 6.04166 10.4584 6.04166 9.49169C6.04166 9.15002 6.325 8.86669 6.66666 8.86669C7.00833 8.86669 7.29166 9.15002 7.29166 9.49169C7.29166 9.79169 7.50833 10.0334 7.775 10.0334H9.025C9.21666 10.0334 9.36666 9.85835 9.36666 9.64169C9.36666 9.35002 9.31666 9.33335 9.125 9.26669L7.11666 8.56669C6.4 8.31669 6.04166 7.80835 6.04166 7.01669C6.04166 6.11669 6.75833 5.37502 7.63333 5.37502H7.70833V5.34169C7.70833 5.00002 7.99166 4.71669 8.33333 4.71669C8.675 4.71669 8.95833 5.00002 8.95833 5.34169V5.39169C9.88333 5.43335 10.625 6.20835 10.625 7.17502C10.625 7.51669 10.3417 7.80002 10 7.80002C9.65833 7.80002 9.375 7.51669 9.375 7.17502C9.375 6.87502 9.15833 6.63335 8.89166 6.63335H7.64166C7.45 6.63335 7.3 6.80835 7.3 7.02502C7.29166 7.30835 7.34166 7.32502 7.54166 7.39169Z" fill="#A4A7AE"/>
</svg>
