<svg width="42" height="42" viewBox="0 0 42 42" fill="none" xmlns="http://www.w3.org/2000/svg">
<rect x="1" y="1" width="40" height="40" rx="8" fill="white"/>
<rect x="1" y="1" width="40" height="40" rx="8" stroke="#E9EAEB" stroke-width="0.5"/>
<path d="M27.33 14.67L15.59 26.41C15.15 26.85 14.41 26.79 14.05 26.27C12.81 24.46 12.08 22.32 12.08 20.12V15.73C12.08 14.91 12.7 13.98 13.46 13.67L19.03 11.39C20.29 10.87 21.69 10.87 22.95 11.39L27 13.04C27.66 13.31 27.83 14.17 27.33 14.67Z" fill="#8B5CF6"/>
<path d="M28.27 16.04C28.92 15.49 29.91 15.96 29.91 16.81V20.12C29.91 25.01 26.36 29.59 21.51 30.93C21.18 31.02 20.82 31.02 20.48 30.93C19.06 30.53 17.74 29.86 16.61 28.98C16.13 28.61 16.08 27.91 16.5 27.48C18.68 25.25 25.06 18.75 28.27 16.04Z" fill="#8B5CF6"/>
</svg>
