<svg width="20" height="20" viewBox="0 0 20 20" fill="none" xmlns="http://www.w3.org/2000/svg">
<path d="M14.1667 3.33331H5.83333C3.33333 3.33331 1.66666 4.58331 1.66666 7.49998V10.4666C1.66666 10.775 1.98333 10.9666 2.25833 10.8416C3.075 10.4666 4.01666 10.325 5.00833 10.5C7.2 10.8916 8.80833 12.925 8.75 15.15C8.74166 15.5 8.69166 15.8416 8.6 16.175C8.53333 16.4333 8.74166 16.675 9.00833 16.675H14.1667C16.6667 16.675 18.3333 15.425 18.3333 12.5083V7.49998C18.3333 4.58331 16.6667 3.33331 14.1667 3.33331ZM10 12.0833C8.85 12.0833 7.91666 11.15 7.91666 9.99998C7.91666 8.84998 8.85 7.91665 10 7.91665C11.15 7.91665 12.0833 8.84998 12.0833 9.99998C12.0833 11.15 11.15 12.0833 10 12.0833ZM16.0417 11.6666C16.0417 12.0083 15.7583 12.2916 15.4167 12.2916C15.075 12.2916 14.7917 12.0083 14.7917 11.6666V8.33331C14.7917 7.99165 15.075 7.70831 15.4167 7.70831C15.7583 7.70831 16.0417 7.99165 16.0417 8.33331V11.6666Z" fill="#A4A7AE"/>
<path d="M4.16667 11.6667C2.325 11.6667 0.833336 13.1584 0.833336 15C0.833336 15.625 1.00834 16.2167 1.31667 16.7167C1.89167 17.6834 2.95 18.3334 4.16667 18.3334C5.38334 18.3334 6.44167 17.6834 7.01667 16.7167C7.325 16.2167 7.5 15.625 7.5 15C7.5 13.1584 6.00834 11.6667 4.16667 11.6667ZM5.40834 15.6084H4.79167V16.2584C4.79167 16.6 4.50834 16.8834 4.16667 16.8834C3.825 16.8834 3.54167 16.6 3.54167 16.2584V15.6084H2.925C2.58334 15.6084 2.3 15.325 2.3 14.9834C2.3 14.6417 2.58334 14.3584 2.925 14.3584H3.54167V13.7667C3.54167 13.425 3.825 13.1417 4.16667 13.1417C4.50834 13.1417 4.79167 13.425 4.79167 13.7667V14.3584H5.40834C5.75 14.3584 6.03334 14.6417 6.03334 14.9834C6.03334 15.325 5.75834 15.6084 5.40834 15.6084Z" fill="#A4A7AE"/>
</svg>
