<svg width="48" height="48" viewBox="0 0 48 48" fill="none" xmlns="http://www.w3.org/2000/svg">
<path d="M31.56 4H16.44C8.88 4 7 6.02 7 14.08V36.6C7 41.92 9.92 43.18 13.46 39.38L13.48 39.36C15.12 37.62 17.62 37.76 19.04 39.66L21.06 42.36C22.68 44.5 25.3 44.5 26.92 42.36L28.94 39.66C30.38 37.74 32.88 37.6 34.52 39.36C38.08 43.16 40.98 41.9 40.98 36.58V14.08C41 6.02 39.12 4 31.56 4ZM15.56 24C14.46 24 13.56 23.1 13.56 22C13.56 20.9 14.46 20 15.56 20C16.66 20 17.56 20.9 17.56 22C17.56 23.1 16.66 24 15.56 24ZM15.56 16C14.46 16 13.56 15.1 13.56 14C13.56 12.9 14.46 12 15.56 12C16.66 12 17.56 12.9 17.56 14C17.56 15.1 16.66 16 15.56 16ZM32.46 23.5H21.46C20.64 23.5 19.96 22.82 19.96 22C19.96 21.18 20.64 20.5 21.46 20.5H32.46C33.28 20.5 33.96 21.18 33.96 22C33.96 22.82 33.28 23.5 32.46 23.5ZM32.46 15.5H21.46C20.64 15.5 19.96 14.82 19.96 14C19.96 13.18 20.64 12.5 21.46 12.5H32.46C33.28 12.5 33.96 13.18 33.96 14C33.96 14.82 33.28 15.5 32.46 15.5Z" fill="#8B5CF6"/>
</svg>
