<svg width="20" height="20" viewBox="0 0 20 20" fill="none" xmlns="http://www.w3.org/2000/svg">
<path d="M18.3333 9.14169V10.8584C18.3333 11.3167 17.9667 11.6917 17.5 11.7084H15.8667C14.9667 11.7084 14.1417 11.05 14.0667 10.15C14.0167 9.62502 14.2167 9.13335 14.5667 8.79169C14.875 8.47502 15.3 8.29169 15.7667 8.29169H17.5C17.9667 8.30835 18.3333 8.68335 18.3333 9.14169Z" fill="#A4A7AE"/>
<path d="M17.0583 12.9584H15.8667C14.2833 12.9584 12.95 11.7667 12.8167 10.25C12.7417 9.38335 13.0583 8.51669 13.6917 7.90002C14.225 7.35002 14.9667 7.04169 15.7667 7.04169H17.0583C17.3 7.04169 17.5 6.84169 17.475 6.60002C17.2917 4.57502 15.95 3.19169 13.9583 2.95835C13.7583 2.92502 13.55 2.91669 13.3333 2.91669H5.83333C5.6 2.91669 5.375 2.93335 5.15833 2.96669C3.03333 3.23335 1.66666 4.81669 1.66666 7.08335V12.9167C1.66666 15.2167 3.53333 17.0834 5.83333 17.0834H13.3333C15.6667 17.0834 17.275 15.625 17.475 13.4C17.5 13.1584 17.3 12.9584 17.0583 12.9584ZM10.8333 8.12502H5.83333C5.49166 8.12502 5.20833 7.84169 5.20833 7.50002C5.20833 7.15835 5.49166 6.87502 5.83333 6.87502H10.8333C11.175 6.87502 11.4583 7.15835 11.4583 7.50002C11.4583 7.84169 11.175 8.12502 10.8333 8.12502Z" fill="#A4A7AE"/>
</svg>
